<?xml version="1.0" encoding="utf-8"?>
<!-- Generated by IcoMoon.io -->
<!DOCTYPE svg PUBLIC "-//W3C//DTD SVG 1.1//EN" "http://www.w3.org/Graphics/SVG/1.1/DTD/svg11.dtd">
<svg version="1.1" xmlns="http://www.w3.org/2000/svg" xmlns:xlink="http://www.w3.org/1999/xlink" width="560" height="20" viewBox="0 0 560 20">
<svg id="icon-spinner11" width="20" height="20" viewBox="0 0 20 20" x="0" y="0">
<path d="M20 7.5h-7.5l2.803-2.803c-1.417-1.417-3.3-2.197-5.303-2.197s-3.887 0.78-5.303 2.197c-1.417 1.417-2.197 3.3-2.197 5.303s0.78 3.887 2.197 5.303c1.417 1.417 3.3 2.197 5.303 2.197s3.887-0.78 5.303-2.197c0.118-0.118 0.232-0.24 0.341-0.365l1.881 1.646c-1.833 2.093-4.525 3.415-7.525 3.415-5.523 0-10-4.477-10-10s4.477-10 10-10c2.761 0 5.261 1.12 7.071 2.929l2.929-2.929v7.5z"></path>
</svg>
<svg id="icon-checkmark" width="20" height="20" viewBox="0 0 20 20" x="36" y="0">
<path d="M16.875 2.5l-9.375 9.375-4.375-4.375-3.125 3.125 7.5 7.5 12.5-12.5z"></path>
</svg>
<svg id="icon-arrow-right" width="20" height="20" viewBox="0 0 20 20" x="72" y="0">
<path d="M19.375 10l-9.375-9.375v5.625h-10v7.5h10v5.625z"></path>
</svg>
<svg id="icon-arrow-left" width="20" height="20" viewBox="0 0 20 20" x="108" y="0">
<path d="M0.625 10l9.375 9.375v-5.625h10v-7.5h-10v-5.625z"></path>
</svg>
</svg>
